<svg aria-hidden="true" style="width:0;height:0;position:absolute;overflow:hidden" xmlns="http://www.w3.org/2000/svg"><defs><symbol id="icon-facebook" viewBox="0 0 32 32"><path fill="#696969" style="fill:var(--color1,#696969)" d="M15.873 0C7.107 0 0 7.159 0 15.988c0 8.015 5.863 14.634 13.5 15.79V20.224H9.573v-4.202H13.5v-2.797c0-4.63 2.239-6.661 6.06-6.661 1.829 0 2.798.137 3.255.199v3.668H20.21c-1.622 0-2.188 1.55-2.188 3.295v2.297h4.753l-.644 4.202h-4.109v11.587c7.747-1.058 13.725-7.73 13.725-15.824C31.747 7.159 24.64 0 15.874 0z"/></symbol><symbol id="icon-twitter" viewBox="0 0 36 32"><path fill="#696969" style="fill:var(--color1,#696969)" d="M34.958 4.317a13.985 13.985 0 0 1-4.124 1.188c1.482-.926 2.622-2.403 3.157-4.148a13.948 13.948 0 0 1-4.557 1.815c-1.305-1.456-3.167-2.36-5.229-2.36-3.962 0-7.173 3.351-7.173 7.482 0 .584.065 1.154.187 1.707-5.96-.315-11.246-3.297-14.782-7.823a7.695 7.695 0 0 0-.971 3.768c0 2.597 1.263 4.884 3.19 6.231a7.026 7.026 0 0 1-3.252-.934v.088c0 3.63 2.473 6.652 5.751 7.34a6.788 6.788 0 0 1-1.885.269c-.463 0-.915-.056-1.352-.138.913 2.966 3.561 5.134 6.698 5.198-2.455 2.003-5.546 3.203-8.908 3.203-.581 0-1.148-.035-1.71-.106 3.175 2.117 6.947 3.358 10.995 3.358 13.191 0 20.407-11.403 20.407-21.294 0-.324-.01-.647-.024-.966a14.498 14.498 0 0 0 3.58-3.876z"/></symbol><symbol id="icon-instagram" viewBox="0 0 34 32"><path fill="#696969" style="fill:var(--color1,#696969)" d="M10.307.863c-5.053 0-9.165 3.935-9.165 8.77v12.525c0 4.834 4.114 8.767 9.168 8.767h13.094c5.054 0 9.166-3.935 9.166-8.77V9.629c0-4.833-4.114-8.766-9.168-8.766H10.306zm15.979 4.81c.694 0 1.257.539 1.257 1.202s-.563 1.202-1.257 1.202-1.257-.539-1.257-1.202.563-1.202 1.257-1.202zm-9.429 2.405c4.507 0 8.171 3.505 8.171 7.816s-3.665 7.816-8.171 7.816c-4.507 0-8.171-3.506-8.171-7.816s3.665-7.816 8.171-7.816zm0 2.405c-3.125 0-5.657 2.422-5.657 5.411s2.533 5.411 5.657 5.411c3.125 0 5.657-2.422 5.657-5.411s-2.533-5.411-5.657-5.411z"/></symbol><symbol id="icon-linkedin" viewBox="0 0 30 32"><path fill="#696969" style="fill:var(--color1,#696969)" d="M30 .863H0v30.062h30V.863zM10 24.245H5.795V12.554H10v11.691zM7.823 10.411c-1.285 0-2.143-.858-2.143-2.004s.857-2.004 2.285-2.004c1.285 0 2.143.858 2.143 2.004s-.857 2.004-2.285 2.004zM25 24.245h-4.07v-6.39c0-1.767-1.085-2.174-1.492-2.174s-1.763.272-1.763 2.174v6.39H13.47V12.554h4.205v1.632c.542-.952 1.627-1.632 3.662-1.632S25 14.186 25 17.855v6.39z"/></symbol><symbol id="icon-logo" viewBox="0 0 28 32"><path d="M24.553 20.612c-.027-.113-.05-.229-.086-.331a3.317 3.317 0 0 0-.704-1.246 3.256 3.256 0 0 0-1.838-1.023c.053-.58.102-1.249.145-1.988l.079-1.58.033-.855c.01-.177.01-.354 0-.53l-.04-.292-.066-.288a3.305 3.305 0 0 0-2.691-2.372 9.534 9.534 0 0 0-1.108-.05c-1.322-.02-2.717-.03-4.096-.03s-2.76 0-4.096.027a9.743 9.743 0 0 0-1.107.05 3.317 3.317 0 0 0-2.701 2.368 3.601 3.601 0 0 0-.106.583 4.26 4.26 0 0 0 0 .53l.033.855.079 1.58c.04.689.086 1.325.132 1.862a3.472 3.472 0 0 0-2.849 3.061v3.975c0 .106 0 .238.02.358s.036.242.056.361a3.418 3.418 0 0 0 2.975 2.67c.116 0 .228 0 .331.017h.8l1.957-.03c-.889.891-1.772 2.319-1.821 3.124.113.118.239.223.377.311.109.089.229.165.357.225.992-.391 2.568-2.501 2.787-3.687a411.3 411.3 0 0 0 5.54-.136c.106 1.15 1.759 3.412 2.797 3.819.146-.072.284-.161.41-.265.121-.077.232-.168.331-.272-.053-.881-1.091-2.478-2.049-3.339.959-.037 1.825-.073 2.591-.116a.431.431 0 0 0 .331-.487.414.414 0 0 0-.331-.424c-3.064-.166-7.795-.285-13.272-.361h-.942a1.727 1.727 0 0 1-1.461-1.368l-.023-.179v-4.018a1.654 1.654 0 0 1 2.136-1.393c.47.148.851.499 1.037.957.045.113.076.231.092.351.02.144.028.289.023.434v1.14a.902.902 0 0 0 .932.907c3.21 0 6.327-.027 9.256-.06h.02a.837.837 0 0 0 .837-.858v-1.325a1.77 1.77 0 0 1 1.78-1.792c.475.004.928.2 1.257.543.186.188.331.414.423.662l.056.189.036.192v.47l.053 2.044.03.957v.444c0 .111-.007.222-.023.331a2.062 2.062 0 0 1-.605 1.143 2.094 2.094 0 0 1-1.044.543.47.47 0 0 0-.274.497.377.377 0 0 0 .39.381 2.982 2.982 0 0 0 1.597-.639 3.093 3.093 0 0 0 1.088-1.66c.04-.18.066-.363.076-.546 0-.186 0-.331.02-.48l.03-.957.053-2.044v-.6a14.615 14.615 0 0 1-.049-.341zm-5.028-2.136c-.464.301-.849.71-1.121 1.192a3.464 3.464 0 0 0-.423 1.626v.457c-2.416-.023-4.939-.04-7.527-.046v-.235a4.332 4.332 0 0 0-.04-.702 3.249 3.249 0 0 0-.199-.749 3.47 3.47 0 0 0-2.188-2.057 3.36 3.36 0 0 0-.578-.123 62.91 62.91 0 0 0 .132-1.838l.079-1.58.033-.855a2.034 2.034 0 0 1 .106-.646c.146-.394.43-.722.8-.921.192-.101.402-.163.618-.182.165-.02.552 0 .876 0 1.322.02 2.717.027 4.096.027s2.76 0 4.096-.03c.331 0 .711-.02.876 0 .213.023.42.087.608.189.373.202.659.535.803.934l.046.149.03.152c.017.116.027.234.03.351l.033.855.076 1.577a59.3 59.3 0 0 0 .142 1.954 3.39 3.39 0 0 0-1.405.5z"/><path d="M22.748 6.863c.043-1.785.079-3.74.102-5.962a.848.848 0 0 0-.836-.858h-.017L18.662.01a.884.884 0 0 0-.886.878v1.726L14.738.199a.892.892 0 0 0-1.12 0C8.018 4.787 2.786 9.219.065 11.759c-.116.109-.073.358.096.546s.357.242.473.159c2.935-2.067 8.099-6.062 13.543-10.401l3.917 3.167a.904.904 0 0 0 1.47-.708V1.793h1.593c.026 1.988.059 3.789.102 5.429v.04a.71.71 0 0 0 .274.54c2.645 2.073 4.724 3.644 6.221 4.684.126.089.354 0 .502-.205s.155-.387.056-.484c-1.291-1.219-3.147-2.863-5.567-4.932z"/></symbol></defs></svg>