<svg aria-hidden="true" style="width:0;height:0;position:absolute;overflow:hidden" xmlns="http://www.w3.org/2000/svg"><defs><symbol id="icon-facebook" viewBox="0 0 32 32"><path fill="#696969" style="fill:var(--color1,#696969)" d="M15.873 0C7.107 0 0 7.159 0 15.988c0 8.015 5.863 14.634 13.5 15.79V20.224H9.573v-4.202H13.5v-2.797c0-4.63 2.239-6.661 6.06-6.661 1.829 0 2.798.137 3.255.199v3.668H20.21c-1.622 0-2.188 1.55-2.188 3.295v2.297h4.753l-.644 4.202h-4.109v11.587c7.747-1.058 13.725-7.73 13.725-15.824C31.747 7.159 24.64 0 15.874 0z"/></symbol><symbol id="icon-twitter" viewBox="0 0 36 32"><path fill="#696969" style="fill:var(--color1,#696969)" d="M34.958 4.317a13.985 13.985 0 0 1-4.124 1.188c1.482-.926 2.622-2.403 3.157-4.148a13.948 13.948 0 0 1-4.557 1.815c-1.305-1.456-3.167-2.36-5.229-2.36-3.962 0-7.173 3.351-7.173 7.482 0 .584.065 1.154.187 1.707-5.96-.315-11.246-3.297-14.782-7.823a7.695 7.695 0 0 0-.971 3.768c0 2.597 1.263 4.884 3.19 6.231a7.026 7.026 0 0 1-3.252-.934v.088c0 3.63 2.473 6.652 5.751 7.34a6.788 6.788 0 0 1-1.885.269c-.463 0-.915-.056-1.352-.138.913 2.966 3.561 5.134 6.698 5.198-2.455 2.003-5.546 3.203-8.908 3.203-.581 0-1.148-.035-1.71-.106 3.175 2.117 6.947 3.358 10.995 3.358 13.191 0 20.407-11.403 20.407-21.294 0-.324-.01-.647-.024-.966a14.498 14.498 0 0 0 3.58-3.876z"/></symbol><symbol id="icon-instagram" viewBox="0 0 34 32"><path fill="#696969" style="fill:var(--color1,#696969)" d="M10.307.863c-5.053 0-9.165 3.935-9.165 8.77v12.525c0 4.834 4.114 8.767 9.168 8.767h13.094c5.054 0 9.166-3.935 9.166-8.77V9.629c0-4.833-4.114-8.766-9.168-8.766H10.306zm15.979 4.81c.694 0 1.257.539 1.257 1.202s-.563 1.202-1.257 1.202-1.257-.539-1.257-1.202.563-1.202 1.257-1.202zm-9.429 2.405c4.507 0 8.171 3.505 8.171 7.816s-3.665 7.816-8.171 7.816c-4.507 0-8.171-3.506-8.171-7.816s3.665-7.816 8.171-7.816zm0 2.405c-3.125 0-5.657 2.422-5.657 5.411s2.533 5.411 5.657 5.411c3.125 0 5.657-2.422 5.657-5.411s-2.533-5.411-5.657-5.411z"/></symbol><symbol id="icon-linkedin" viewBox="0 0 30 32"><path fill="#696969" style="fill:var(--color1,#696969)" d="M30 .863H0v30.062h30V.863zM10 24.245H5.795V12.554H10v11.691zM7.823 10.411c-1.285 0-2.143-.858-2.143-2.004s.857-2.004 2.285-2.004c1.285 0 2.143.858 2.143 2.004s-.857 2.004-2.285 2.004zM25 24.245h-4.07v-6.39c0-1.767-1.085-2.174-1.492-2.174s-1.763.272-1.763 2.174v6.39H13.47V12.554h4.205v1.632c.542-.952 1.627-1.632 3.662-1.632S25 14.186 25 17.855v6.39z"/></symbol></defs></svg>