<svg aria-hidden="true" style="position: absolute; width: 0; height: 0; overflow: hidden;" version="1.1" xmlns="http://www.w3.org/2000/svg" xmlns:xlink="http://www.w3.org/1999/xlink">
<defs>
<symbol id="icon-facebook" viewBox="0 0 32 32">
<path fill="#696969" style="fill: var(--color1, #696969)" d="M15.873 0c-8.766 0-15.873 7.159-15.873 15.988 0 8.015 5.863 14.634 13.5 15.79v-11.554h-3.927v-4.202h3.927v-2.797c0-4.63 2.239-6.661 6.060-6.661 1.829 0 2.798 0.137 3.255 0.199v3.668h-2.605c-1.622 0-2.188 1.55-2.188 3.295v2.297h4.753l-0.644 4.202h-4.109v11.587c7.747-1.058 13.725-7.73 13.725-15.824 0-8.829-7.107-15.988-15.873-15.988z"></path>
</symbol>
<symbol id="icon-twitter" viewBox="0 0 36 32">
<path fill="#696969" style="fill: var(--color1, #696969)" d="M34.958 4.317c-1.285 0.599-2.667 0.999-4.124 1.188 1.482-0.926 2.622-2.403 3.157-4.148-1.387 0.856-2.922 1.484-4.557 1.815-1.305-1.456-3.167-2.36-5.229-2.36-3.962 0-7.173 3.351-7.173 7.482 0 0.584 0.065 1.154 0.187 1.707-5.96-0.315-11.246-3.297-14.782-7.823-0.621 1.106-0.971 2.401-0.971 3.768 0 2.597 1.263 4.884 3.19 6.231-1.176-0.038-2.283-0.382-3.252-0.934 0 0.023 0 0.056 0 0.088 0 3.63 2.473 6.652 5.751 7.34-0.599 0.173-1.232 0.269-1.885 0.269-0.463 0-0.915-0.056-1.352-0.138 0.913 2.966 3.561 5.134 6.698 5.198-2.455 2.003-5.546 3.203-8.908 3.203-0.581 0-1.148-0.035-1.71-0.106 3.175 2.117 6.947 3.358 10.995 3.358 13.191 0 20.407-11.403 20.407-21.294 0-0.324-0.010-0.647-0.024-0.966 1.409-1.046 2.622-2.367 3.58-3.876z"></path>
</symbol>
<symbol id="icon-instagram" viewBox="0 0 34 32">
<path fill="#696969" style="fill: var(--color1, #696969)" d="M10.307 0.863c-5.053 0-9.165 3.935-9.165 8.77v12.525c0 4.834 4.114 8.767 9.168 8.767h13.094c5.054 0 9.166-3.935 9.166-8.77v-12.526c0-4.833-4.114-8.766-9.168-8.766h-13.096zM26.286 5.673c0.694 0 1.257 0.539 1.257 1.202s-0.563 1.202-1.257 1.202c-0.694 0-1.257-0.539-1.257-1.202s0.563-1.202 1.257-1.202zM16.857 8.078c4.507 0 8.171 3.505 8.171 7.816s-3.665 7.816-8.171 7.816c-4.507 0-8.171-3.506-8.171-7.816s3.665-7.816 8.171-7.816zM16.857 10.483c-3.125 0-5.657 2.422-5.657 5.411s2.533 5.411 5.657 5.411c3.125 0 5.657-2.422 5.657-5.411s-2.533-5.411-5.657-5.411z"></path>
</symbol>
<symbol id="icon-linkedin" viewBox="0 0 30 32">
<path fill="#696969" style="fill: var(--color1, #696969)" d="M30 0.863h-30v30.062h30v-30.062zM10 24.245h-4.205v-11.691h4.205v11.691zM7.823 10.411c-1.285 0-2.143-0.858-2.143-2.004s0.857-2.004 2.285-2.004c1.285 0 2.143 0.858 2.143 2.004s-0.857 2.004-2.285 2.004zM25 24.245h-4.070v-6.39c0-1.767-1.085-2.174-1.492-2.174s-1.763 0.272-1.763 2.174c0 0.272 0 6.39 0 6.39h-4.205v-11.691h4.205v1.632c0.542-0.952 1.627-1.632 3.662-1.632s3.663 1.632 3.663 5.301v6.39z"></path>
</symbol>
</defs>
</svg>
