<svg aria-hidden="true" style="position: absolute; width: 0; height: 0; overflow: hidden;" version="1.1" xmlns="http://www.w3.org/2000/svg" xmlns:xlink="http://www.w3.org/1999/xlink">
<defs>
<symbol id="icon-facebook" viewBox="0 0 32 32">
<path fill="#696969" style="fill: var(--color1, #696969)" d="M15.873 0c-8.766 0-15.873 7.159-15.873 15.988 0 8.015 5.863 14.634 13.5 15.79v-11.554h-3.927v-4.202h3.927v-2.797c0-4.63 2.239-6.661 6.060-6.661 1.829 0 2.798 0.137 3.255 0.199v3.668h-2.605c-1.622 0-2.188 1.55-2.188 3.295v2.297h4.753l-0.644 4.202h-4.109v11.587c7.747-1.058 13.725-7.73 13.725-15.824 0-8.829-7.107-15.988-15.873-15.988z"></path>
</symbol>
<symbol id="icon-twitter" viewBox="0 0 36 32">
<path fill="#696969" style="fill: var(--color1, #696969)" d="M34.958 4.317c-1.285 0.599-2.667 0.999-4.124 1.188 1.482-0.926 2.622-2.403 3.157-4.148-1.387 0.856-2.922 1.484-4.557 1.815-1.305-1.456-3.167-2.36-5.229-2.36-3.962 0-7.173 3.351-7.173 7.482 0 0.584 0.065 1.154 0.187 1.707-5.96-0.315-11.246-3.297-14.782-7.823-0.621 1.106-0.971 2.401-0.971 3.768 0 2.597 1.263 4.884 3.19 6.231-1.176-0.038-2.283-0.382-3.252-0.934 0 0.023 0 0.056 0 0.088 0 3.63 2.473 6.652 5.751 7.34-0.599 0.173-1.232 0.269-1.885 0.269-0.463 0-0.915-0.056-1.352-0.138 0.913 2.966 3.561 5.134 6.698 5.198-2.455 2.003-5.546 3.203-8.908 3.203-0.581 0-1.148-0.035-1.71-0.106 3.175 2.117 6.947 3.358 10.995 3.358 13.191 0 20.407-11.403 20.407-21.294 0-0.324-0.010-0.647-0.024-0.966 1.409-1.046 2.622-2.367 3.58-3.876z"></path>
</symbol>
<symbol id="icon-instagram" viewBox="0 0 34 32">
<path fill="#696969" style="fill: var(--color1, #696969)" d="M10.307 0.863c-5.053 0-9.165 3.935-9.165 8.77v12.525c0 4.834 4.114 8.767 9.168 8.767h13.094c5.054 0 9.166-3.935 9.166-8.77v-12.526c0-4.833-4.114-8.766-9.168-8.766h-13.096zM26.286 5.673c0.694 0 1.257 0.539 1.257 1.202s-0.563 1.202-1.257 1.202c-0.694 0-1.257-0.539-1.257-1.202s0.563-1.202 1.257-1.202zM16.857 8.078c4.507 0 8.171 3.505 8.171 7.816s-3.665 7.816-8.171 7.816c-4.507 0-8.171-3.506-8.171-7.816s3.665-7.816 8.171-7.816zM16.857 10.483c-3.125 0-5.657 2.422-5.657 5.411s2.533 5.411 5.657 5.411c3.125 0 5.657-2.422 5.657-5.411s-2.533-5.411-5.657-5.411z"></path>
</symbol>
<symbol id="icon-linkedin" viewBox="0 0 30 32">
<path fill="#696969" style="fill: var(--color1, #696969)" d="M30 0.863h-30v30.062h30v-30.062zM10 24.245h-4.205v-11.691h4.205v11.691zM7.823 10.411c-1.285 0-2.143-0.858-2.143-2.004s0.857-2.004 2.285-2.004c1.285 0 2.143 0.858 2.143 2.004s-0.857 2.004-2.285 2.004zM25 24.245h-4.070v-6.39c0-1.767-1.085-2.174-1.492-2.174s-1.763 0.272-1.763 2.174c0 0.272 0 6.39 0 6.39h-4.205v-11.691h4.205v1.632c0.542-0.952 1.627-1.632 3.662-1.632s3.663 1.632 3.663 5.301v6.39z"></path>
</symbol>
<symbol id="icon-logo" viewBox="0 0 28 32">
<path d="M24.553 20.612c-0.027-0.113-0.050-0.229-0.086-0.331v0c-0.141-0.462-0.382-0.887-0.704-1.246-0.483-0.535-1.129-0.895-1.838-1.023 0.053-0.58 0.102-1.249 0.145-1.988l0.079-1.58 0.033-0.855c0.010-0.177 0.010-0.354 0-0.53l-0.040-0.292-0.066-0.288v0c-0.173-0.613-0.519-1.162-0.997-1.583s-1.065-0.695-1.694-0.789c-0.368-0.038-0.738-0.055-1.108-0.050-1.322-0.020-2.717-0.030-4.096-0.030s-2.76 0-4.096 0.027h-0c-0.37-0.004-0.739 0.012-1.107 0.050-0.63 0.092-1.22 0.365-1.699 0.785s-0.827 0.97-1.002 1.583c-0.051 0.191-0.087 0.386-0.106 0.583-0.011 0.177-0.011 0.354 0 0.53l0.033 0.855 0.079 1.58c0.040 0.689 0.086 1.325 0.132 1.862-0.473 0.082-0.923 0.262-1.322 0.53-0.86 0.573-1.42 1.501-1.527 2.531v3.975c0 0.106 0 0.238 0.020 0.358s0.036 0.242 0.056 0.361c0.207 0.95 0.808 1.767 1.653 2.246 0.406 0.232 0.857 0.377 1.322 0.424 0.116 0 0.228 0 0.331 0.017h0.8l1.957-0.030c-0.889 0.891-1.772 2.319-1.821 3.124l0-0c0.113 0.118 0.239 0.223 0.377 0.311 0.109 0.089 0.229 0.165 0.357 0.225 0.992-0.391 2.568-2.501 2.787-3.687 2.016-0.037 3.884-0.083 5.54-0.136 0.106 1.15 1.759 3.412 2.797 3.819 0.146-0.072 0.284-0.161 0.41-0.265 0.121-0.077 0.232-0.168 0.331-0.272-0.053-0.881-1.091-2.478-2.049-3.339 0.959-0.037 1.825-0.073 2.591-0.116v0c0.221-0.050 0.366-0.263 0.331-0.487 0.009-0.204-0.131-0.383-0.331-0.424-3.064-0.166-7.795-0.285-13.272-0.361l-0.942 0c-0.234-0.030-0.459-0.11-0.661-0.232-0.414-0.25-0.704-0.662-0.8-1.136l-0.023-0.179v-4.018c0.055-0.491 0.327-0.932 0.74-1.201s0.926-0.34 1.396-0.192 0.851 0.499 1.037 0.957c0.045 0.113 0.076 0.231 0.092 0.351 0.020 0.144 0.028 0.289 0.023 0.434v1.14c-0.001 0.246 0.098 0.481 0.273 0.652s0.414 0.263 0.659 0.255c3.21 0 6.327-0.027 9.256-0.060h0.020c0.225 0 0.441-0.091 0.599-0.253s0.243-0.38 0.238-0.605v-1.325c-0.006-0.476 0.179-0.934 0.514-1.271s0.792-0.525 1.266-0.521c0.475 0.004 0.928 0.2 1.257 0.543 0.186 0.188 0.331 0.414 0.423 0.662l0.056 0.189 0.036 0.192v0.47l0.053 2.044 0.030 0.957v0.444c0 0.111-0.007 0.222-0.023 0.331-0.074 0.436-0.286 0.837-0.605 1.143-0.289 0.277-0.652 0.466-1.044 0.543-0.192 0.085-0.304 0.288-0.274 0.497-0.001 0.103 0.040 0.202 0.114 0.274s0.173 0.11 0.276 0.107c0.583-0.051 1.139-0.274 1.597-0.639 0.535-0.418 0.917-1.002 1.088-1.66 0.040-0.18 0.066-0.363 0.076-0.546 0-0.186 0-0.331 0.020-0.48l0.030-0.957 0.053-2.044v-0.6c-0.016-0.103-0.033-0.219-0.049-0.341h0zM19.525 18.476c-0.464 0.301-0.849 0.71-1.121 1.192-0.272 0.499-0.418 1.058-0.423 1.626v0.457c-2.416-0.023-4.939-0.040-7.527-0.046v-0.235c0.006-0.235-0.008-0.47-0.040-0.702-0.036-0.256-0.103-0.508-0.199-0.749-0.38-0.983-1.185-1.739-2.188-2.057-0.189-0.058-0.382-0.099-0.578-0.123 0.048-0.543 0.092-1.156 0.132-1.838l0.079-1.58 0.033-0.855h0c0.003-0.116 0.012-0.233 0.030-0.348 0.018-0.101 0.043-0.201 0.076-0.298 0.146-0.394 0.43-0.722 0.8-0.921 0.192-0.101 0.402-0.163 0.618-0.182 0.165-0.020 0.552 0 0.876 0 1.322 0.020 2.717 0.027 4.096 0.027s2.76 0 4.096-0.030c0.331 0 0.711-0.020 0.876 0h0c0.213 0.023 0.42 0.087 0.608 0.189 0.373 0.202 0.659 0.535 0.803 0.934l0.046 0.149 0.030 0.152c0.017 0.116 0.027 0.234 0.030 0.351l0.033 0.855 0.076 1.577c0.043 0.729 0.089 1.384 0.142 1.954-0.499 0.060-0.979 0.231-1.405 0.5l-0-0z"></path>
<path d="M22.748 6.863c0.043-1.785 0.079-3.74 0.102-5.962h0c0.003-0.225-0.084-0.442-0.241-0.603s-0.371-0.253-0.595-0.255h-0.017l-3.335-0.033c-0.234-0.002-0.459 0.090-0.625 0.255s-0.26 0.389-0.261 0.623v1.726l-3.038-2.415c-0.159-0.128-0.356-0.198-0.56-0.198s-0.402 0.070-0.56 0.198c-5.6 4.588-10.832 9.020-13.553 11.56-0.116 0.109-0.073 0.358 0.096 0.546s0.357 0.242 0.473 0.159c2.935-2.067 8.099-6.062 13.543-10.401l3.917 3.167c0.179 0.143 0.404 0.213 0.632 0.196s0.441-0.12 0.596-0.287c0.155-0.168 0.242-0.388 0.242-0.617v-2.729h1.593c0.026 1.988 0.059 3.789 0.102 5.429v0.040c0.006 0.212 0.107 0.41 0.274 0.54 2.645 2.073 4.724 3.644 6.221 4.684 0.126 0.089 0.354 0 0.502-0.205s0.155-0.387 0.056-0.484c-1.291-1.219-3.147-2.863-5.567-4.932l0 0z"></path>
</symbol>
</defs>
</svg>
